<svg width="30" height="30" viewBox="0 0 30 30" fill="none" xmlns="http://www.w3.org/2000/svg">
<path fill-rule="evenodd" clip-rule="evenodd" d="M21.5125 11.8625H27.5C28.1875 11.8625 28.75 12.425 28.75 13.1125L28.7125 13.45L25.5375 25.0375C25.2375 26.0875 24.275 26.8625 23.125 26.8625H6.875C5.725 26.8625 4.7625 26.0875 4.475 25.0375L1.3 13.45C1.2625 13.3375 1.25 13.225 1.25 13.1125C1.25 12.425 1.8125 11.8625 2.5 11.8625H8.4875L13.9625 3.67501C14.2 3.31251 14.6 3.13751 15 3.13751C15.4 3.13751 15.8 3.31251 16.0375 3.66251L21.5125 11.8625ZM18.5 11.8625L15 6.61251L11.5 11.8625H18.5ZM23.125 24.3625L6.8875 24.375L4.1375 14.3625H25.875L23.125 24.3625ZM12.5 19.3625C12.5 17.9875 13.625 16.8625 15 16.8625C16.375 16.8625 17.5 17.9875 17.5 19.3625C17.5 20.7375 16.375 21.8625 15 21.8625C13.625 21.8625 12.5 20.7375 12.5 19.3625Z" fill="#6320EF"/>
</svg>
