<svg width="17" height="20" viewBox="0 0 17 20" fill="none" xmlns="http://www.w3.org/2000/svg">
<path d="M17 17.3339L15.7756 4.36349C15.7536 4.10681 15.5246 3.91223 15.2472 3.91223H12.6663C12.6619 1.75533 10.7946 0 8.5 0C6.20544 0 4.33808 1.75533 4.33368 3.91223H1.75285C1.47979 3.91223 1.25078 4.10681 1.22435 4.36349L0 17.3339C0 17.3504 0 17.3629 0 17.3794C0 18.8243 1.41373 20 3.14896 20H13.851C15.5863 20 17 18.8243 17 17.3794C17 17.3629 17 17.3504 17 17.3339ZM8.5 0.993583C10.2132 0.993583 11.6049 2.3018 11.6093 3.91223H5.39067C5.39508 2.3018 6.78679 0.993583 8.5 0.993583ZM13.851 19.0023H3.14896C2.00389 19.0023 1.07021 18.2861 1.057 17.396L2.23731 4.90582H4.33368V6.64873C4.33368 6.92196 4.5715 7.14552 4.86218 7.14552C5.15285 7.14552 5.39067 6.92196 5.39067 6.64873V4.90582H11.6093V6.64873C11.6093 6.92196 11.8472 7.14552 12.1378 7.14552C12.4285 7.14552 12.6663 6.92196 12.6663 6.64873V4.90582H14.7627L15.943 17.4001C15.9298 18.2861 14.9961 19.0023 13.851 19.0023Z" fill="#6B6B6B"/>
</svg>
